<?xml version="1.0" standalone="no"?>
<!DOCTYPE svg PUBLIC "-//W3C//DTD SVG 20010904//EN"
 "http://www.w3.org/TR/2001/REC-SVG-20010904/DTD/svg10.dtd">
<svg version="1.0" xmlns="http://www.w3.org/2000/svg"
 width="1024.000000pt" height="1024.000000pt" viewBox="0 0 1024.000000 1024.000000"
 preserveAspectRatio="xMidYMid meet">
<metadata>
Created by potrace 1.11, written by Peter Selinger 2001-2013
</metadata>
<g transform="translate(0.000000,1024.000000) scale(0.100000,-0.100000)"
fill="#000000" stroke="none">
<path d="M5110 9605 c-13 -32 -88 -250 -95 -275 -2 -8 -24 -73 -49 -145 -107
-311 -267 -781 -271 -795 -2 -8 -41 -121 -85 -250 -45 -129 -106 -309 -137
-400 -31 -91 -87 -255 -125 -365 -38 -110 -71 -207 -73 -215 -2 -8 -29 -87
-60 -175 -31 -88 -58 -168 -60 -177 -2 -9 -9 -27 -16 -40 -7 -13 -11 -24 -10
-26 2 -2 -51 -171 -66 -212 -3 -8 -32 -89 -63 -180 l-57 -165 -1914 3 c-1191
2 -1910 0 -1904 -6 6 -5 68 -49 140 -98 71 -49 170 -117 220 -151 49 -34 155
-106 235 -160 80 -54 150 -101 155 -106 38 -29 166 -117 171 -117 3 0 11 -6
19 -12 14 -15 258 -182 309 -213 18 -11 55 -36 82 -56 27 -20 99 -69 159 -111
61 -41 160 -108 220 -150 61 -41 139 -95 175 -119 36 -24 67 -46 70 -49 3 -3
12 -9 21 -15 19 -12 243 -164 309 -210 104 -73 333 -231 349 -240 9 -5 39 -27
68 -47 29 -21 56 -38 62 -38 5 0 11 -4 13 -8 1 -5 64 -50 138 -101 74 -50 144
-98 154 -106 19 -14 19 -17 -13 -112 -18 -54 -44 -127 -57 -163 -13 -36 -60
-171 -104 -300 -44 -129 -83 -242 -86 -250 -3 -8 -6 -17 -6 -20 0 -3 -18 -54
-40 -115 -21 -60 -57 -162 -78 -225 -21 -63 -48 -139 -59 -168 -11 -29 -20
-56 -22 -60 -1 -4 -3 -11 -5 -17 -2 -5 -26 -75 -53 -155 -27 -80 -93 -271
-146 -425 -53 -154 -125 -363 -160 -465 -35 -102 -91 -264 -125 -360 -33 -96
-63 -182 -65 -190 -2 -8 -4 -15 -4 -15 -2 0 -60 -166 -65 -185 -3 -8 -22 -65
-43 -127 -29 -81 -35 -109 -24 -102 9 5 63 42 121 82 58 40 150 104 205 142
55 38 134 93 175 122 41 29 82 57 90 63 14 9 180 123 352 242 43 29 86 59 95
66 130 92 175 122 182 122 5 0 11 4 13 8 2 4 52 42 113 82 60 41 119 83 129
92 11 10 25 18 32 18 7 0 14 4 16 8 2 5 19 20 40 33 54 36 252 172 263 181 6
5 111 78 235 163 124 85 233 161 243 168 23 16 336 232 361 249 10 7 29 21 41
31 13 9 28 17 33 17 6 0 12 3 14 8 4 11 106 82 117 82 5 0 11 4 13 8 2 4 47
38 101 75 l97 68 93 -64 c50 -35 128 -88 172 -119 124 -85 443 -306 515 -356
36 -25 90 -62 120 -83 30 -21 80 -55 110 -76 30 -21 98 -68 150 -103 52 -36
100 -68 105 -73 6 -4 60 -42 120 -84 223 -154 693 -478 785 -542 52 -35 97
-69 98 -73 2 -4 8 -8 14 -8 5 0 20 -8 33 -18 12 -9 31 -23 41 -30 11 -7 60
-41 109 -75 50 -35 135 -94 190 -132 55 -37 102 -72 103 -77 2 -4 9 -8 16 -8
6 0 27 -13 46 -30 19 -16 41 -29 48 -30 6 0 12 -4 12 -9 0 -5 8 -12 18 -15 10
-4 27 -14 38 -24 11 -9 27 -21 36 -27 9 -5 36 -24 59 -40 24 -17 49 -34 56
-38 6 -4 -2 30 -19 75 -16 46 -32 90 -34 98 -2 8 -24 74 -49 145 -25 72 -59
168 -74 215 -16 47 -70 202 -119 345 -49 143 -102 296 -117 340 -15 44 -30 89
-35 100 -5 11 -30 83 -56 160 -26 77 -62 183 -81 235 -18 52 -35 102 -38 110
-6 23 -95 283 -105 305 -4 11 -25 70 -45 130 -55 162 -145 425 -220 640 -37
105 -68 197 -70 205 -2 8 -4 15 -5 15 -1 0 -3 7 -5 15 -4 18 -24 74 -40 115
-7 17 -25 68 -41 114 -31 90 -32 81 23 118 10 7 88 61 173 119 85 59 211 145
280 192 171 117 261 179 353 243 44 30 86 59 95 64 10 6 19 12 22 15 3 3 64
45 135 93 72 49 189 128 260 177 72 49 138 95 149 102 10 7 35 24 55 38 37 27
84 59 646 443 182 124 335 229 340 234 6 5 69 48 140 96 72 49 193 131 269
183 l139 95 -1916 -3 c-1053 -2 -1917 -1 -1920 2 -2 3 -18 50 -36 105 -18 55
-36 109 -41 120 -11 28 -71 203 -74 218 -2 7 -6 21 -10 32 -5 11 -14 37 -22
58 -8 20 -11 37 -8 37 4 0 2 6 -3 13 -6 6 -56 149 -112 317 -57 168 -107 314
-111 325 -5 11 -23 61 -39 110 -16 50 -86 257 -156 460 -70 204 -129 379 -132
390 -2 11 -8 29 -13 40 -4 11 -18 49 -30 85 -12 36 -24 72 -27 80 -92 268
-215 629 -218 640 -3 12 -118 346 -137 400 -4 11 -9 6 -18 -15z"/>
</g>
</svg>
